<svg xmlns="http://www.w3.org/2000/svg" width="25.737" height="18.101" viewBox="0 0 25.737 18.101"><defs><style>.a{fill:#4c85c4;}</style></defs><path class="a" d="M25.8,5.828a21.3,21.3,0,0,1,.471,3.865l.047,2.357-.047,2.357A21.551,21.551,0,0,1,25.8,18.32a3.346,3.346,0,0,1-2.31,2.263,33.528,33.528,0,0,1-5.751.471l-4.29.047-4.29-.047a33.528,33.528,0,0,1-5.751-.471A3.346,3.346,0,0,1,1.1,18.32a21.551,21.551,0,0,1-.471-3.912L.586,12.05q0-1.037.047-2.357A21.3,21.3,0,0,1,1.1,5.828a3.295,3.295,0,0,1,2.31-2.31,33.528,33.528,0,0,1,5.751-.471L13.454,3l4.29.047a33.528,33.528,0,0,1,5.751.471,3.295,3.295,0,0,1,2.31,2.31ZM10.815,15.916l6.741-3.865L10.815,8.232Z" transform="translate(-0.586 -3)"/></svg>